<?xml version="1.0" standalone="no"?><!DOCTYPE svg PUBLIC "-//W3C//DTD SVG 1.1//EN" "http://www.w3.org/Graphics/SVG/1.1/DTD/svg11.dtd"><svg t="1611715892636" class="icon" viewBox="0 0 1024 1024" version="1.1" xmlns="http://www.w3.org/2000/svg" p-id="7872" xmlns:xlink="http://www.w3.org/1999/xlink" width="200" height="200"><defs><style type="text/css"></style></defs><path d="M149.333333 960C66.986667 960 0 893.013333 0 810.666667V384c0-82.346667 66.986667-149.333333 149.333333-149.333333H341.333333V170.666667a107.178667 107.178667 0 0 1 106.624-106.666667H576A107.178667 107.178667 0 0 1 682.666667 170.624V234.666667h192C957.013333 234.666667 1024 301.653333 1024 384v426.666667c0 82.346667-66.986667 149.333333-149.333333 149.333333h-725.333334z m725.333334-42.666667c58.794667 0 106.666667-47.872 106.666666-106.666666V384c0-58.837333-47.872-106.666667-106.666666-106.666667H853.333333v640h21.333334z m-64 0v-640h-85.333334v640h85.333334z m-128 0v-640H341.333333v640h341.333334z m-384 0v-640H213.333333v640h85.333334z m-149.333334-640A106.752 106.752 0 0 0 42.666667 384v426.666667c0 58.794667 47.829333 106.666667 106.666666 106.666666H170.666667v-640h-21.333334z m490.666667-42.666666V170.666667a64.426667 64.426667 0 0 0-64.042667-64h-127.914666A64.426667 64.426667 0 0 0 384 170.709333V234.666667h256z" p-id="7873"></path></svg>