<?xml version="1.0" standalone="no"?><!DOCTYPE svg PUBLIC "-//W3C//DTD SVG 1.1//EN" "http://www.w3.org/Graphics/SVG/1.1/DTD/svg11.dtd"><svg t="1611715946149" class="icon" viewBox="0 0 1024 1024" version="1.1" xmlns="http://www.w3.org/2000/svg" p-id="9556" xmlns:xlink="http://www.w3.org/1999/xlink" width="200" height="200"><defs><style type="text/css"></style></defs><path d="M938.666667 874.666667c0 11.733333-9.6 21.333333-21.333334 21.333333H106.666667c-11.733333 0-21.333333-9.6-21.333334-21.333333s9.6-21.333333 21.333334-21.333334h42.666666V490.666667c0-11.733333 9.6-21.333333 21.333334-21.333334h170.666666c11.733333 0 21.333333 9.6 21.333334 21.333334v362.666666h42.666666V320c0-11.733333 9.6-21.333333 21.333334-21.333333h170.666666c11.733333 0 21.333333 9.6 21.333334 21.333333v533.333333h42.666666V149.333333c0-11.733333 9.6-21.333333 21.333334-21.333333h170.666666c11.733333 0 21.333333 9.6 21.333334 21.333333v704h42.666666c11.733333 0 21.333333 9.6 21.333334 21.333334z" p-id="9557"></path></svg>