<?xml version="1.0" standalone="no"?><!DOCTYPE svg PUBLIC "-//W3C//DTD SVG 1.1//EN" "http://www.w3.org/Graphics/SVG/1.1/DTD/svg11.dtd"><svg t="1611715835416" class="icon" viewBox="0 0 1024 1024" version="1.1" xmlns="http://www.w3.org/2000/svg" p-id="6443" xmlns:xlink="http://www.w3.org/1999/xlink" width="200" height="200"><defs><style type="text/css"></style></defs><path d="M171.149 94.214L395.185 67.58a88 88 0 0 1 72.614 25.16l464.04 464.04c34.366 34.365 34.366 90.084 0 124.45L682.23 930.839c-34.366 34.366-90.085 34.366-124.45 0L93.605 466.665a88 88 0 0 1-25.195-72.31l25.706-222.84c4.672-40.5 36.549-72.488 77.032-77.3z m6.375 53.623c-15.483 1.84-27.708 13.97-29.705 29.393l-0.058 0.473-25.706 222.84a34.016 34.016 0 0 0 9.374 27.578l0.36 0.36 464.174 464.174c13.145 13.145 34.376 13.276 47.686 0.398l0.397-0.398 249.609-249.609c13.145-13.145 13.276-34.375 0.394-47.682l-0.394-0.401-464.04-464.04a34 34 0 0 0-27.547-9.777l-0.508 0.056-224.036 26.635z" p-id="6444"></path><path d="M784.12 601.566c10.545-10.544 27.64-10.544 38.185 0 10.544 10.544 10.544 27.64 0 38.184L640.578 821.476c-10.544 10.544-27.64 10.544-38.184 0-10.544-10.544-10.544-27.64 0-38.184l181.727-181.726zM233.967 231.903c46.863-46.862 122.843-46.862 169.706 0 46.394 46.395 46.858 121.327 1.391 168.292l-1.391 1.414c-46.863 46.863-122.843 46.863-169.706 0-46.394-46.394-46.858-121.326-1.392-168.29l1.392-1.416z m38.184 38.184c-25.775 25.775-25.775 67.564 0 93.338 25.774 25.775 67.563 25.775 93.338 0 25.774-25.774 25.774-67.563 0-93.338-25.775-25.774-67.564-25.774-93.338 0z" p-id="6445"></path></svg>