<?xml version="1.0" standalone="no"?><!DOCTYPE svg PUBLIC "-//W3C//DTD SVG 1.1//EN" "http://www.w3.org/Graphics/SVG/1.1/DTD/svg11.dtd"><svg t="1611715911529" class="icon" viewBox="0 0 1024 1024" version="1.1" xmlns="http://www.w3.org/2000/svg" p-id="8390" xmlns:xlink="http://www.w3.org/1999/xlink" width="200" height="200"><defs><style type="text/css"></style></defs><path d="M789.333333 982.869333a234.922667 234.922667 0 0 1-234.666666-234.666666v-381.013334a303.829333 303.829333 0 0 0-85.333334 0v381.013334c0 129.408-105.258667 234.666667-234.666666 234.666666S0 877.610667 0 748.202667a232.533333 232.533333 0 0 1 44.885333-137.472L172.373333 313.130667a21.589333 21.589333 0 0 1 4.522667-6.698667L237.653333 245.717333 300.032 79.36a21.162667 21.162667 0 0 1 5.930667-8.576C327.509333 52.010667 355.2 41.642667 384 41.642667s56.490667 10.325333 78.037333 29.141333a21.333333 21.333333 0 0 1 7.296 16.085333v170.666667a21.333333 21.333333 0 0 1-42.666666 0V97.322667a76.288 76.288 0 0 0-88.704 2.432L275.968 265.002667a20.906667 20.906667 0 0 1-4.864 7.594666L210.005333 333.696 120.021333 543.573333a231.253333 231.253333 0 0 1 114.645334-30.08c76.757333 0 148.48 38.357333 192 100.309334v-237.226667c-38.784 12.330667-64 32.298667-64 51.584a21.333333 21.333333 0 0 1-42.666667 0c0-60.8 82.56-106.666667 192-106.666667s192 45.866667 192 106.666667a21.333333 21.333333 0 0 1-42.666667 0c0-19.285333-25.216-39.253333-64-51.584v237.226667a235.690667 235.690667 0 0 1 192-100.309334c40.704 0 79.744 10.282667 114.645334 30.08l-89.941334-209.877333-61.098666-61.098667a21.674667 21.674667 0 0 1-4.864-7.509333L686.08 102.442667A76.330667 76.330667 0 0 0 597.333333 100.010667v157.525333a21.333333 21.333333 0 0 1-42.666666 0V89.557333a21.333333 21.333333 0 0 1 7.296-16.085333c21.504-18.773333 49.237333-29.141333 78.037333-29.141333s56.490667 10.325333 78.037333 29.141333a21.888 21.888 0 0 1 5.930667 8.448l62.378667 163.712 60.757333 60.757333a21.12 21.12 0 0 1 4.522667 6.698667l127.573333 297.685333A232.448 232.448 0 0 1 1024 748.117333a234.922667 234.922667 0 0 1-234.666667 234.752z m0-426.666666c-105.856 0-192 86.144-192 192s86.144 192 192 192 192-86.144 192-192-86.144-192-192-192z m-554.666666 0c-105.856 0-192 86.144-192 192s86.144 192 192 192 192-86.144 192-192-86.144-192-192-192z" p-id="8391"></path></svg>