<?xml version="1.0" standalone="no"?><!DOCTYPE svg PUBLIC "-//W3C//DTD SVG 1.1//EN" "http://www.w3.org/Graphics/SVG/1.1/DTD/svg11.dtd"><svg t="1611715819052" class="icon" viewBox="0 0 1024 1024" version="1.1" xmlns="http://www.w3.org/2000/svg" p-id="6050" xmlns:xlink="http://www.w3.org/1999/xlink" width="200" height="200"><defs><style type="text/css"></style></defs><path d="M758.784 179.2H218.112c-13.312 0-24.576 10.24-24.576 22.528v664.576c0 12.288 11.264 22.528 24.576 22.528h154.624c13.312 0 24.576-10.24 24.576-22.528 0-12.288-11.264-22.528-24.576-22.528H242.688V224.256h491.52v161.792c0 12.288 11.264 22.528 24.576 22.528s24.576-10.24 24.576-22.528v-184.32c-1.024-12.288-11.264-22.528-24.576-22.528z" p-id="6051"></path><path d="M664.576 901.12c-119.808 0-217.088-97.28-217.088-217.088s97.28-217.088 217.088-217.088 217.088 97.28 217.088 217.088S784.384 901.12 664.576 901.12z m0-399.36c-100.352 0-181.248 81.92-181.248 181.248s81.92 181.248 181.248 181.248 181.248-81.92 181.248-181.248S764.928 501.76 664.576 501.76z" p-id="6052"></path><path d="M723.968 773.12c-4.096 0-8.192-1.024-11.264-4.096l-72.704-57.344v-98.304c0-10.24 8.192-18.432 18.432-18.432s18.432 8.192 18.432 18.432v81.92l58.368 47.104c8.192 6.144 9.216 17.408 3.072 25.6-4.096 2.048-9.216 5.12-14.336 5.12z" p-id="6053"></path></svg>