<?xml version="1.0" standalone="no"?><!DOCTYPE svg PUBLIC "-//W3C//DTD SVG 1.1//EN" "http://www.w3.org/Graphics/SVG/1.1/DTD/svg11.dtd"><svg t="1611715843375" class="icon" viewBox="0 0 1024 1024" version="1.1" xmlns="http://www.w3.org/2000/svg" p-id="6704" xmlns:xlink="http://www.w3.org/1999/xlink" width="200" height="200"><defs><style type="text/css"></style></defs><path d="M518 66c48.601 0 88 39.399 88 88v41c0 48.601-39.399 88-88 88H308c-48.601 0-88-39.399-88-88v-41c0-48.601 39.399-88 88-88h210z m0 54H308c-18.59 0-33.695 14.92-33.995 33.438L274 154v41c0 18.59 14.92 33.695 33.438 33.995L308 229h210c18.59 0 33.695-14.92 33.995-33.438L552 195v-41c0-18.59-14.92-33.695-33.438-33.995L518 120z" p-id="6705"></path><path d="M247.262 135c14.912 0 27 12.088 27 27 0 14.763-11.847 26.758-26.553 26.996l-0.447 0.004H181c-33.548 0-60.457 25.703-60.992 57.163l-0.008 0.955v597.764c0 31.574 26.574 57.593 59.985 58.11L181 903h331c14.912 0 27 12.088 27 27 0 14.763-11.848 26.758-26.554 27H181c-62.682 0-113.965-48.997-114.985-110.258l-0.015-1.86V247.118c0-61.504 50.656-111.117 113.104-112.103L181 135h66.262zM646 135c62.682 0 113.965 48.997 114.985 110.258l0.015 1.86v197.92c0 14.912-12.088 27-27 27-14.763 0-26.758-11.847-26.996-26.553l-0.004-0.446v-197.92c0-31.575-26.574-57.594-59.985-58.111L646 189h-66.128c-14.912 0-27-12.088-27-27 0-14.763 11.848-26.758 26.553-26.996l0.447-0.004H646zM725.498 636C675.046 636 634 677.05 634 727.502S675.046 819 725.498 819C775.954 819 817 777.954 817 727.502 816.995 677.046 775.95 636 725.498 636z m0.002 151c-32.809 0-59.5-26.691-59.5-59.5s26.691-59.5 59.5-59.5 59.5 26.691 59.5 59.5-26.691 59.5-59.5 59.5z m219.759-22.769l-29.573-17.1a194.27 194.27 0 0 0 0.997-19.631c0-6.545-0.335-13.122-0.997-19.63l29.573-17.101c11.215-6.486 15.074-20.902 8.598-32.135l-54.629-94.768c-6.476-11.233-20.87-15.093-32.085-8.612l-29.573 17.1a190.46 190.46 0 0 0-33.95-19.666v-34.165c0-12.972-10.535-23.523-23.491-23.523H670.87c-12.952 0-23.487 10.556-23.487 23.523v34.17a190.779 190.779 0 0 0-33.949 19.666l-29.578-17.1c-11.215-6.486-25.609-2.626-32.085 8.611l-54.63 94.764c-6.475 11.233-2.616 25.649 8.6 32.135l29.572 17.1a194.337 194.337 0 0 0-0.997 19.631c0 6.54 0.335 13.122 0.997 19.63l-29.573 17.101c-11.215 6.486-15.074 20.902-8.598 32.14l54.629 94.763c6.476 11.237 20.87 15.098 32.085 8.612l29.578-17.1a190.873 190.873 0 0 0 33.95 19.662v34.169c0 12.972 10.534 23.523 23.486 23.523H780.13c12.952 0 23.491-10.556 23.491-23.523v-34.17a191.033 191.033 0 0 0 33.95-19.662l29.573 17.1c11.22 6.487 25.614 2.626 32.085-8.61l54.63-94.765c6.475-11.237 2.62-25.648-8.6-32.139z m-78.531 95.344l-25.367-14.686c-7.753-4.483-17.328-3.853-24.398 1.614a148.745 148.745 0 0 1-34.13 19.795c-8.242 3.41-13.571 11.407-13.571 20.37V916H682.73v-29.332c0-8.963-5.325-16.96-13.567-20.37a148.9 148.9 0 0 1-34.13-19.795c-7.07-5.467-16.65-6.102-24.398-1.614l-25.367 14.686L542 784.423l25.358-14.68a21.986 21.986 0 0 0 10.81-21.955 151.522 151.522 0 0 1-1.294-19.79c0-6.613 0.437-13.272 1.295-19.79a21.975 21.975 0 0 0-10.811-21.954L542 671.573l43.268-75.152 25.367 14.685c7.749 4.488 17.324 3.854 24.398-1.613a148.9 148.9 0 0 1 34.13-19.795c8.242-3.41 13.571-11.407 13.571-20.37V540h86.536v29.328c0 8.963 5.325 16.96 13.57 20.37a148.835 148.835 0 0 1 34.131 19.795c7.07 5.463 16.645 6.097 24.394 1.613l25.367-14.685L910 671.573l-25.358 14.68a21.988 21.988 0 0 0-10.81 21.959 151.474 151.474 0 0 1 1.294 19.79c0 6.613-0.433 13.268-1.295 19.79a21.972 21.972 0 0 0 10.811 21.954L910 784.427l-43.272 75.148z" p-id="6706"></path><path d="M436 721c14.912 0 27 12.088 27 27s-12.088 27-27 27H235c-14.912 0-27-12.088-27-27s12.088-27 27-27h201z m0-175c14.912 0 27 12.088 27 27s-12.088 27-27 27H235c-14.912 0-27-12.088-27-27s12.088-27 27-27h201z m101-175c14.912 0 27 12.088 27 27s-12.088 27-27 27H235c-14.912 0-27-12.088-27-27s12.088-27 27-27h302z" p-id="6707"></path></svg>