<?xml version="1.0" standalone="no"?><!DOCTYPE svg PUBLIC "-//W3C//DTD SVG 1.1//EN" "http://www.w3.org/Graphics/SVG/1.1/DTD/svg11.dtd"><svg t="1611715857282" class="icon" viewBox="0 0 1024 1024" version="1.1" xmlns="http://www.w3.org/2000/svg" p-id="7093" xmlns:xlink="http://www.w3.org/1999/xlink" width="200" height="200"><defs><style type="text/css"></style></defs><path d="M870 530c48.601 0 88 39.399 88 88v252c0 48.601-39.399 88-88 88H618c-48.601 0-88-39.399-88-88V618c0-48.601 39.399-88 88-88h252z m0 54H618c-18.59 0-33.695 14.92-33.995 33.438L584 618v252c0 18.59 14.92 33.695 33.438 33.995L618 904h252c18.59 0 33.695-14.92 33.995-33.438L904 870V618c0-18.59-14.92-33.695-33.438-33.995L870 584zM406 530c48.601 0 88 39.399 88 88v252c0 48.601-39.399 88-88 88H154c-48.601 0-88-39.399-88-88V618c0-48.601 39.399-88 88-88h252z m0 54H154c-18.59 0-33.695 14.92-33.995 33.438L120 618v252c0 18.59 14.92 33.695 33.438 33.995L154 904h252c18.59 0 33.695-14.92 33.995-33.438L440 870V618c0-18.59-14.92-33.695-33.438-33.995L406 584zM870 66c48.601 0 88 39.399 88 88v252c0 48.601-39.399 88-88 88H618c-48.601 0-88-39.399-88-88V154c0-48.601 39.399-88 88-88h252z m0 54H618c-18.59 0-33.695 14.92-33.995 33.438L584 154v252c0 18.59 14.92 33.695 33.438 33.995L618 440h252c18.59 0 33.695-14.92 33.995-33.438L904 406V154c0-18.59-14.92-33.695-33.438-33.995L870 120zM262 66c108.248 0 196 87.528 196 195.5 0 40.24-12.189 77.642-33.085 108.73l78.463 78.464c10.544 10.544 10.544 27.64 0 38.184-10.544 10.544-27.64 10.544-38.184 0l-76.341-76.34C354.665 439.516 310.38 457 262 457c-108.248 0-196-87.528-196-195.5S153.752 66 262 66z m0 54c-78.455 0-142 63.383-142 141.5 0 78.117 63.545 141.5 142 141.5 33.88 0 65.785-11.795 91.169-33.01l0.767-0.645 15.127-12.823 11.035-16.416c15.342-22.826 23.715-49.552 23.899-77.658l0.003-0.948c0-78.117-63.545-141.5-142-141.5z" p-id="7094"></path></svg>