<?xml version="1.0" standalone="no"?><!DOCTYPE svg PUBLIC "-//W3C//DTD SVG 1.1//EN" "http://www.w3.org/Graphics/SVG/1.1/DTD/svg11.dtd"><svg t="1611715925221" class="icon" viewBox="0 0 1024 1024" version="1.1" xmlns="http://www.w3.org/2000/svg" p-id="8781" xmlns:xlink="http://www.w3.org/1999/xlink" width="200" height="200"><defs><style type="text/css"></style></defs><path d="M324.266667 725.333333a42.453333 42.453333 0 0 1-30.165334-12.458666 42.453333 42.453333 0 0 1-9.429333-46.250667c10.581333-26.154667 33.152-49.706667 66.218667-69.290667H170.666667a21.333333 21.333333 0 0 1 0-42.666666h277.333333V106.666667A21.333333 21.333333 0 0 0 426.666667 85.333333H170.666667a21.333333 21.333333 0 0 1 0-42.666666h256c35.285333 0 64 28.714667 64 64V170.666667H896c28.458667 0 37.589333 13.824 40.490667 22.101333 2.901333 8.277333 4.437333 24.789333-17.792 42.581333L652.8 448l299.178667 239.317333A21.333333 21.333333 0 0 1 938.666667 725.333333H324.266667z m151.893333-129.28a13.056 13.056 0 0 1-2.986667 0.938667c-1.109333 0.213333-124.288 24.618667-148.949333 85.674667h553.642667l-272.512-218.026667a21.205333 21.205333 0 0 1 0-33.322667L877.866667 213.333333H490.666667v362.666667a17.92 17.92 0 0 1-0.426667 3.157333 18.218667 18.218667 0 0 1-2.432 7.125334 21.717333 21.717333 0 0 1-5.077333 6.058666 17.664 17.664 0 0 1-3.626667 2.389334 15.146667 15.146667 0 0 1-2.944 1.322666zM85.333333 1024a21.333333 21.333333 0 0 1-21.333333-21.333333V21.333333a21.333333 21.333333 0 0 1 42.666667 0v981.333334a21.333333 21.333333 0 0 1-21.333334 21.333333z" p-id="8782"></path></svg>