<?xml version="1.0" standalone="no"?><!DOCTYPE svg PUBLIC "-//W3C//DTD SVG 1.1//EN" "http://www.w3.org/Graphics/SVG/1.1/DTD/svg11.dtd"><svg t="1611715830342" class="icon" viewBox="0 0 1024 1024" version="1.1" xmlns="http://www.w3.org/2000/svg" p-id="6311" xmlns:xlink="http://www.w3.org/1999/xlink" width="200" height="200"><defs><style type="text/css"></style></defs><path d="M709.75390625 165.93066406c84.058594 0 148.31542969 64.28320338 148.31542969 148.31542969v395.5078125c0 84.058594-64.28320338 148.31542969-148.31542969 148.31542969h-395.5078125c-84.058594 0-148.31542969-64.28320338-148.31542969-148.31542969v-395.5078125c0-84.058594 64.28320338-148.31542969 148.31542969-148.31542969h395.5078125M709.75390625 116.4921875h-395.5078125C205.48144531 116.4921875 116.4921875 205.48144531 116.4921875 314.24609375v395.5078125C116.4921875 818.51855469 205.48144531 907.5078125 314.24609375 907.5078125h395.5078125c108.76464844 0 197.75390625-88.98925781 197.75390625-197.75390625v-395.5078125C907.5078125 205.48144531 818.51855469 116.4921875 709.75390625 116.4921875z" p-id="6312"></path><path d="M798.45312475 497.81445338C745.92968725 398.41015625 636.1367185 327.42968775 512 327.42968775c-124.1367185 0-233.92968725 70.9804685-286.45312475 170.38476563a29.92675756 29.92675756 0 0 0 0 28.37109324C278.07031275 625.58984375 387.8632815 696.57031225 512 696.57031225c124.1367185 0 233.92968725-70.9804685 286.45312475-170.38476563a29.92675756 29.92675756 0 0 0 0-28.37109324z" p-id="6313"></path><path d="M511.86816381 617.46874975C450.43261744 617.46874975 406.53125025 571.5898435 406.53125025 512s48.25195313-105.46874975 105.33691356-105.46874975c61.43554713 0 105.31054662 45.87890625 105.31054738 105.46874975 4.40332057 59.5898435-43.87500025 105.46874975-105.31054738 105.46874975z" fill="#ffffff" p-id="6314"></path><path d="M432.8984375 500.82031275c0 21.46289037 14.84472682 37.54687525 39.55078125 37.5468745 19.77539063 0 39.55078125-16.08398412 39.55078125-37.5468745-4.9570315-16.08398412-9.88769531-26.81542969-24.73242213-37.52050832-9.86132838-5.37890625-24.70605443-5.37890625-34.59374974 0-14.84472682 10.70507787-19.77539063 21.43652344-19.77539063 37.52050832z" p-id="6315"></path></svg>