<?xml version="1.0" standalone="no"?><!DOCTYPE svg PUBLIC "-//W3C//DTD SVG 1.1//EN" "http://www.w3.org/Graphics/SVG/1.1/DTD/svg11.dtd"><svg t="1611715867229" class="icon" viewBox="0 0 1024 1024" version="1.1" xmlns="http://www.w3.org/2000/svg" p-id="7353" xmlns:xlink="http://www.w3.org/1999/xlink" width="200" height="200"><defs><style type="text/css"></style></defs><path d="M959 371v501c0 48.601-39.399 88-88 88H154c-48.601 0-88-39.399-88-88V371h893z m-54 54H120v447c0 18.59 14.92 33.695 33.438 34H871c18.59 0 33.695-14.92 34-33.438V425z" p-id="7354"></path><path d="M236.624 66.755h554.683l166.067 304.557-47.41 25.851-150.719-276.408H268.242L112.982 397.45 65.89 371.025z" p-id="7355"></path><path d="M680 485c14.912 0 27 12.088 27 27s-12.088 27-27 27H344c-14.912 0-27-12.088-27-27s12.088-27 27-27h336zM513 67c14.912 0 27 12.088 27 27v297c0 14.912-12.088 27-27 27s-27-12.088-27-27V94c0-14.912 12.088-27 27-27z" p-id="7356"></path></svg>