<?xml version="1.0" standalone="no"?><!DOCTYPE svg PUBLIC "-//W3C//DTD SVG 1.1//EN" "http://www.w3.org/Graphics/SVG/1.1/DTD/svg11.dtd"><svg t="1611715871435" class="icon" viewBox="0 0 1024 1024" version="1.1" xmlns="http://www.w3.org/2000/svg" p-id="7484" xmlns:xlink="http://www.w3.org/1999/xlink" width="200" height="200"><defs><style type="text/css"></style></defs><path d="M871 530c48.601 0 88 39.399 88 88v252c0 48.601-39.399 88-88 88H619c-48.601 0-88-39.399-88-88V618c0-48.601 39.399-88 88-88h252z m0 54H619c-18.59 0-33.695 14.92-33.995 33.438L585 618v252c0 18.59 14.92 33.695 33.438 33.995L619 904h252c18.59 0 33.695-14.92 33.995-33.438L905 870V618c0-18.59-14.92-33.695-33.438-33.995L871 584zM407 530c48.601 0 88 39.399 88 88v252c0 48.601-39.399 88-88 88H155c-48.601 0-88-39.399-88-88V618c0-48.601 39.399-88 88-88h252z m0 54H155c-18.59 0-33.695 14.92-33.995 33.438L121 618v252c0 18.59 14.92 33.695 33.438 33.995L155 904h252c18.59 0 33.695-14.92 33.995-33.438L441 870V618c0-18.59-14.92-33.695-33.438-33.995L407 584zM871 66c48.601 0 88 39.399 88 88v252c0 48.601-39.399 88-88 88H619c-48.601 0-88-39.399-88-88V154c0-48.601 39.399-88 88-88h252z m0 54H619c-18.59 0-33.695 14.92-33.995 33.438L585 154v252c0 18.59 14.92 33.695 33.438 33.995L619 440h252c18.59 0 33.695-14.92 33.995-33.438L905 406V154c0-18.59-14.92-33.695-33.438-33.995L871 120zM302.69 397.806c-2.499 9.975-15.21 31.707-35.34 60.993 5.477 1.25 10.796 2.74 16.114 3.697 9.84 1.783 19.679 3.192 29.412 4.948 3.27 0.585 4.893-0.585 6.595-3.112 19.732-29.286 35.554-60.568 48.877-93.18 5.16-12.714 9.6-25.8 14.467-38.755 0.452-1.33 0.984-2.66 1.489-4.203a5156.98 5156.98 0 0 1 31.645 10.96c-1.914 5.692-3.616 11.012-5.53 16.332-16.196 44.953-36.38 88.018-63.212 127.705-2.207 3.325-4.733 6.437-6.94 9.709-5.027 7.687-12.127 10.055-21.009 9.15a387.61 387.61 0 0 1-99.43-23.088c-58.424-22.025-108.685-55.674-148.52-104.192-4.734-5.825-6.144-12.182-3.032-19.072 3.031-6.596 8.802-9.549 15.876-9.708a256.827 256.827 0 0 0 87.836-17.157c25.582-9.63 48.957-23.01 66.907-44.236 5.185-6.144 9.414-13.14 14.36-20.003l29.225 16.466c-5.425 7.9-10.238 15.747-15.929 22.902-13.881 17.53-31.432 30.909-50.792 41.708-29.358 16.333-60.977 25.67-93.899 30.99-0.975 0.237-1.96 0.432-2.952 0.584 4.734 4.31 8.723 8.3 13.164 11.837 8.137 6.65 16.408 13.167 24.917 19.391 1.702 1.17 4.574 1.703 6.595 1.17 16.94-3.776 32.39-10.506 45.394-22.636-1.037 5.906-11.727 21.014-26.752 37.719 9.467 4.735 18.907 8.858 27.79 14.044 11.54 6.73 22.47 4.895 33.719 0 19.067-8.219 35.341-20.561 51.005-33.861 2.5-2.208 5-4.416 7.95-7.102z m123.391-86.822c-53.451-23.807-106.53-47.347-159.902-71.154 4.441-10.268 11.302-18.088 20.69-23.594a50.993 50.993 0 0 1 48.664-3.032c21.354 9.336 42.734 18.673 63.876 28.461 24.837 11.545 36.538 37.373 28.986 63.122-0.585 1.994-1.49 3.91-2.314 6.197z m-23.72-93.179l-50.048-22.29c-0.372-0.186-0.585-0.559-1.117-1.011 0.665-1.25 1.17-2.5 1.915-3.724 20.769-39.048 41.564-78.044 62.386-117.092 3.484-6.517 7.553-8.512 15.078-7.395a26.511 26.511 0 0 1 17.18 9.363 11.307 11.307 0 0 1 2.074 11.917c-15.53 42.799-30.981 85.571-46.431 128.317-0.213 0.532-0.532 0.958-1.038 1.915z" p-id="7485"></path></svg>