<?xml version="1.0" standalone="no"?><!DOCTYPE svg PUBLIC "-//W3C//DTD SVG 1.1//EN" "http://www.w3.org/Graphics/SVG/1.1/DTD/svg11.dtd"><svg t="1611715862999" class="icon" viewBox="0 0 1024 1024" version="1.1" xmlns="http://www.w3.org/2000/svg" p-id="7222" xmlns:xlink="http://www.w3.org/1999/xlink" width="200" height="200"><defs><style type="text/css"></style></defs><path d="M870 66c48.601 0 88 39.399 88 88v716c0 48.601-39.399 88-88 88H154c-48.601 0-88-39.399-88-88V154c0-48.601 39.399-88 88-88h716z m0 54H154c-18.59 0-33.695 14.92-34 33.438V870c0 18.59 14.92 33.695 33.438 34H870c18.59 0 33.695-14.92 34-33.438V154c0-18.59-14.92-33.695-33.438-34H870z" p-id="7223"></path><path d="M768 652c14.912 0 27 12.088 27 27s-12.088 27-27 27H484c-14.912 0-27-12.088-27-27s12.088-27 27-27h284z m0-334c14.912 0 27 12.088 27 27s-12.088 27-27 27H484c-14.912 0-27-12.088-27-27s12.088-27 27-27h284z" p-id="7224"></path><path d="M300 563c64.065 0 116 51.935 116 116s-51.935 116-116 116-116-51.935-116-116 51.935-116 116-116z m0 54c-34.242 0-62 27.758-62 62 0 34.242 27.758 62 62 62 34.242 0 62-27.758 62-62 0-34.242-27.758-62-62-62zM376.143 259.208c10.31-10.774 27.4-11.15 38.175-0.841 10.666 10.206 11.142 27.06 1.147 37.85l-0.306 0.324-126.895 132.612c-0.195 0.204-0.393 0.406-0.594 0.605-12.804 12.712-33.41 12.764-46.28 0.214l-0.388-0.384-55.163-55.566c-10.506-10.582-10.444-27.677 0.139-38.183 10.476-10.4 27.336-10.444 37.866-0.176l0.317 0.315 39.983 40.274 112-117.044z" p-id="7225"></path></svg>