<?xml version="1.0" standalone="no"?><!DOCTYPE svg PUBLIC "-//W3C//DTD SVG 1.1//EN" "http://www.w3.org/Graphics/SVG/1.1/DTD/svg11.dtd"><svg t="1611715827065" class="icon" viewBox="0 0 1031 1024" version="1.1" xmlns="http://www.w3.org/2000/svg" p-id="6181" xmlns:xlink="http://www.w3.org/1999/xlink" width="201.3671875" height="200"><defs><style type="text/css"></style></defs><path d="M429.83453087 820.92421407l97.06304796 53.33134476a70.66403192 70.66403192 0 0 0 81.86361389-12.26620891 66.93083769 66.93083769 0 0 0 19.46594101-48.26486723V455.07118917a21.0658814 21.0658814 0 0 1 7.19973137-15.73274677l229.85809566-184.25979575a66.6641806 66.6641806 0 0 0 11.99955254-73.33059923A69.3307479 69.3307479 0 0 0 814.08686985 141.21622575H209.30942044A66.6641806 66.6641806 0 0 0 147.17840392 181.74804743 66.13086713 66.13086713 0 0 0 159.97792701 255.34530303l2.66656658 3.19988078 223.45833486 178.92666183a20.53256793 20.53256793 0 0 1 7.73304482 15.73274678v307.72185896a67.19749405 67.19749405 0 0 0 35.99865761 59.99776268zM182.1104346 212.68022751h7.19973137a19.99925446 19.99925446 0 0 1 2.13325386-12.79952237 18.13265699 18.13265699 0 0 1 18.13265771-11.1995827h604.51079231a20.26591084 20.26591084 0 0 1 15.99940314 32.53212046l-224.52496104 181.05991496a67.99746461 67.99746461 0 0 0-25.33238837 53.33134477v358.65329352a20.53256793 20.53256793 0 0 1-9.86629939 17.59934352 22.66582178 22.66582178 0 0 1-10.39961217 2.66656731 21.33253777 21.33253777 0 0 1-9.86629868-2.39991022l-97.06304722-53.33134476a19.73259738 19.73259738 0 0 1-10.13295578-17.86600061V453.73790587a67.99746461 67.99746461 0 0 0-26.66567238-53.33134477z" fill="#2c2c2c" p-id="6182"></path><path d="M691.95809065 612.39865616h166.92710858a26.66567239 26.66567239 0 0 0 29.33223969-25.06573199 26.66567239 26.66567239 0 0 0-29.3322397-25.065732h-166.92710857a26.66567239 26.66567239 0 0 0-29.3322397 25.065732 26.66567239 26.66567239 0 0 0 29.3322397 25.06573199zM691.95809065 512.13572818h166.92710858A26.66567239 26.66567239 0 0 0 887.95078255 487.86996673a26.66567239 26.66567239 0 0 0-29.33223969-25.065732h-166.66045221a26.66567239 26.66567239 0 0 0-29.3322397 25.065732 26.66567239 26.66567239 0 0 0 29.3322397 24.26576144zM859.15185631 662.53012015h-167.19376567a26.66567239 26.66567239 0 1 0 0 50.13146399h166.92710859a26.66567239 26.66567239 0 0 0 29.33223969-25.06573198 26.66567239 26.66567239 0 0 0-29.06558261-25.06573201z" fill="#2c2c2c" p-id="6183"></path></svg>