<?xml version="1.0" standalone="no"?><!DOCTYPE svg PUBLIC "-//W3C//DTD SVG 1.1//EN" "http://www.w3.org/Graphics/SVG/1.1/DTD/svg11.dtd"><svg t="1611715815183" class="icon" viewBox="0 0 1024 1024" version="1.1" xmlns="http://www.w3.org/2000/svg" p-id="5920" xmlns:xlink="http://www.w3.org/1999/xlink" width="200" height="200"><defs><style type="text/css"></style></defs><path d="M822.272 223.232H201.728C141.312 223.232 92.16 272.384 92.16 332.8V368.64c0 60.416 49.152 109.568 109.568 109.568h620.544C882.688 478.208 931.84 429.056 931.84 368.64v-36.864c0-59.392-49.152-108.544-109.568-108.544zM894.976 368.64c0 39.936-32.768 72.704-72.704 72.704H201.728c-19.456 0-37.888-8.192-51.2-21.504-13.312-13.312-21.504-32.768-21.504-51.2v-36.864c0-19.456 8.192-37.888 21.504-51.2 13.312-13.312 32.768-21.504 51.2-21.504h620.544c39.936 0 72.704 32.768 72.704 72.704V368.64z m-72.704 183.296H201.728C141.312 551.936 92.16 600.064 92.16 660.48v36.864c0 60.416 49.152 109.568 109.568 109.568h620.544C882.688 806.912 931.84 757.76 931.84 697.344v-36.864c0-60.416-49.152-108.544-109.568-108.544z m72.704 145.408c0 39.936-32.768 72.704-72.704 72.704H201.728c-39.936 0-72.704-32.768-72.704-72.704v-36.864c0-39.936 32.768-72.704 72.704-72.704h620.544c39.936 0 72.704 32.768 72.704 72.704v36.864z m0 0" p-id="5921"></path><path d="M220.16 295.936c-30.72 0-54.272 24.576-54.272 54.272 0 30.72 24.576 54.272 54.272 54.272 30.72 0 54.272-24.576 54.272-54.272s-24.576-54.272-54.272-54.272z m0 72.704c-10.24 0-18.432-8.192-18.432-18.432s8.192-18.432 18.432-18.432 18.432 8.192 18.432 18.432c0 5.12-2.048 9.216-5.12 13.312-4.096 3.072-8.192 5.12-13.312 5.12z m583.68 256c-30.72 0-54.272 24.576-54.272 54.272 0 30.72 24.576 54.272 54.272 54.272 30.72 0 54.272-24.576 54.272-54.272 0-14.336-6.144-28.672-16.384-38.912-9.216-10.24-23.552-15.36-37.888-15.36z m0 72.704c-10.24 0-18.432-8.192-18.432-18.432s8.192-18.432 18.432-18.432 18.432 8.192 18.432 18.432c0 5.12-2.048 9.216-5.12 13.312-4.096 3.072-8.192 5.12-13.312 5.12z m-565.248-91.136c-22.528 0-44.032 10.24-57.344 28.672-13.312 17.408-18.432 40.96-13.312 62.464h38.912c-3.072-5.12-5.12-12.288-5.12-18.432 0-9.216 4.096-19.456 10.24-25.6 7.168-7.168 16.384-10.24 25.6-10.24h72.704v-36.864h-71.68z m583.68-256c0 6.144-2.048 12.288-5.12 18.432h38.912c5.12-21.504 1.024-45.056-13.312-62.464-13.312-17.408-34.816-28.672-57.344-28.672v36.864c9.216 0 19.456 4.096 25.6 10.24 7.168 7.168 11.264 16.384 11.264 25.6z m-109.568-72.704h36.864v36.864h-36.864v-36.864z m0 0" p-id="5922"></path></svg>