<?xml version="1.0" standalone="no"?><!DOCTYPE svg PUBLIC "-//W3C//DTD SVG 1.1//EN" "http://www.w3.org/Graphics/SVG/1.1/DTD/svg11.dtd"><svg t="1612249894577" class="icon" viewBox="0 0 1024 1024" version="1.1" xmlns="http://www.w3.org/2000/svg" p-id="5889" xmlns:xlink="http://www.w3.org/1999/xlink" width="200" height="200"><defs><style type="text/css"></style></defs><path d="M929.072167 349.757173L801.605308 287.849318 737.6181 412.031371l51.121205 26.318359 20.561251-39.886349c17.585482 39.633593 27.302778 82.497758 27.302778 125.896087 0 175.557037-147.578878 318.387784-328.978983 318.387784-54.70277 0-108.914354-13.256905-156.776336-38.426094l-26.740984 50.899148c56.064788 29.491626 119.516809 45.081664 183.51732 45.081665 213.140952 0 386.506072-168.67327 386.506072-375.942503 0-48.594668-9.998705-96.767734-28.706751-141.569014l38.536611 18.707024 25.111884-51.740305zM214.684095 625.506943c-17.598785-39.63257-27.317104-82.495711-27.317105-125.89404 0-175.556014 147.579902-318.418483 328.967726-318.418483 54.716073 0 108.927657 13.286581 156.791686 38.426094l26.739961-50.868449c-56.064788-29.522325-119.490203-45.055059-183.531647-45.055059-213.10002 0-386.492769 168.619035-386.492769 375.914874 0 48.592621 10.014054 96.766711 28.720055 141.56799l-38.522285-18.704977-25.111884 51.766911 127.465835 61.851573 63.987209-124.1534-51.121206-26.348036-20.575576 39.915002z" p-id="5890"></path></svg>